<svg xmlns="http://www.w3.org/2000/svg" width="19.999" height="19.999" viewBox="0 0 19.999 19.999">
  <g id="Icon_sports" data-name="Icon sports" transform="translate(0 2.012)">
    <path id="basketball-solid" d="M5.808,6.691l-3.3-3.3A9.958,9.958,0,0,0,.231,7.876a6.076,6.076,0,0,0,1.644.249A6.185,6.185,0,0,0,5.808,6.691ZM7.6,6.715l2.4,2.4,6.609-6.609A9.962,9.962,0,0,0,10,0c-.289,0-.578.019-.894.043a6.1,6.1,0,0,1,.27,1.831A7.478,7.478,0,0,1,7.6,6.715Zm.527-4.84A6.167,6.167,0,0,0,7.877.231,9.781,9.781,0,0,0,3.392,2.508l3.3,3.3A6.185,6.185,0,0,0,8.125,1.875ZM6.715,7.6a7.478,7.478,0,0,1-4.84,1.777A7.467,7.467,0,0,1,.043,9.139C.019,9.421,0,9.71,0,10a9.958,9.958,0,0,0,2.508,6.609L9.117,10ZM12.4,13.285l-2.4-2.4L3.39,17.491A9.9,9.9,0,0,0,10,20c.291,0,.576-.019.861-.043A7.416,7.416,0,0,1,12.4,13.285Zm1.789.023,3.3,3.3a9.958,9.958,0,0,0,2.277-4.484,6.044,6.044,0,0,0-1.644-.249A6.188,6.188,0,0,0,14.191,13.308Zm3.3-9.916L10.882,10l2.4,2.4a7.412,7.412,0,0,1,6.67-1.542c.024-.282.043-.571.043-.861A9.9,9.9,0,0,0,17.491,3.392ZM11.874,18.124a6.167,6.167,0,0,0,.247,1.644,9.945,9.945,0,0,0,4.484-2.277l-3.3-3.3A6.2,6.2,0,0,0,11.874,18.124Z" transform="translate(0 -2.012)" fill="#e12f4f"/>
  </g>
</svg>
