<svg xmlns="http://www.w3.org/2000/svg" width="34.044" height="35.527" viewBox="0 0 34.044 35.527">
  <path id="Promotions_icon" data-name="Promotions icon" d="M1588.588-1877.383a14.769,14.769,0,0,1-1.661-1.967,1.536,1.536,0,0,0-1.96-.672,17.842,17.842,0,0,1-2.458.622,2.552,2.552,0,0,1-3.178-2.249c-.1-.646-.108-1.308-.154-1.961-.022-.311-.053-.619-.056-.928a1.259,1.259,0,0,0-.929-1.246c-.746-.284-1.495-.562-2.232-.868a4.248,4.248,0,0,1-.837-.477,2.41,2.41,0,0,1-.913-3.029,12.816,12.816,0,0,1,.913-1.655c.272-.461.576-.905.862-1.361a1.031,1.031,0,0,0-.006-1.179c-.286-.455-.586-.9-.859-1.363a12.643,12.643,0,0,1-.885-1.59,2.4,2.4,0,0,1,1.016-3.166,17.724,17.724,0,0,1,2.147-.959,3.819,3.819,0,0,1,.538-.189,1.652,1.652,0,0,0,1.243-1.825,17.982,17.982,0,0,1,.135-2.216,2.619,2.619,0,0,1,3.523-2.4c.837.188,1.668.4,2.5.63a1.119,1.119,0,0,0,1.318-.431c.411-.543.834-1.079,1.28-1.593a6.977,6.977,0,0,1,.971-.949,2.437,2.437,0,0,1,3.2.007,13.493,13.493,0,0,1,1.446,1.531,11.779,11.779,0,0,1,.8,1.016,1.117,1.117,0,0,0,1.323.435c.816-.223,1.629-.464,2.455-.64a4,4,0,0,1,1.347-.08,2.487,2.487,0,0,1,2.208,2.364c.086.65.094,1.31.137,1.964.021.3.056.595.059.893a1.2,1.2,0,0,0,.889,1.156c.764.3,1.538.579,2.3.9a3.058,3.058,0,0,1,1.518,1.205,7.79,7.79,0,0,1,.424,1.015v.573a7.609,7.609,0,0,1-1.374,2.72c-.188.276-.35.569-.54.842a1.206,1.206,0,0,0,.011,1.494c.116.167.212.347.326.515A10.339,10.339,0,0,1,1607-1889.6v.861a3.422,3.422,0,0,1-2.4,2.295c-.49.185-.979.376-1.482.522a1.718,1.718,0,0,0-1.3,1.872,15.551,15.551,0,0,1-.13,2.178c-.3,2.021-1.571,2.863-3.578,2.408-.826-.186-1.642-.41-2.459-.629a1.081,1.081,0,0,0-1.266.4c-.412.541-.843,1.07-1.279,1.593a7.326,7.326,0,0,1-.711.754,2.873,2.873,0,0,1-1.914.826A2.722,2.722,0,0,1,1588.588-1877.383Zm-.325-3.943c.373.435.717.895,1.084,1.334.276.33.564.649.852.968a.369.369,0,0,0,.611,0c.2-.208.4-.412.584-.632.494-.6.958-1.223,1.476-1.8a2.875,2.875,0,0,1,2.526-1.015,11.172,11.172,0,0,1,1.54.313c.682.168,1.358.362,2.036.545.3.01.407-.176.425-.412.057-.737.124-1.475.142-2.214a3.513,3.513,0,0,1,2.656-3.788c.555-.214,1.12-.407,1.675-.622.96-.37.992-.465.446-1.328-.444-.706-.92-1.4-1.343-2.114a3.093,3.093,0,0,1,0-3.331c.4-.68.851-1.326,1.27-1.994.662-1.056.651-1-.481-1.485-.733-.312-1.495-.562-2.227-.88a3.048,3.048,0,0,1-1.927-2.713c-.068-.844-.1-1.693-.136-2.54s-.163-.932-.985-.73-1.635.436-2.459.628a3.081,3.081,0,0,1-3.235-1.011c-.385-.441-.737-.91-1.114-1.357-.293-.347-.6-.683-.9-1.016a.343.343,0,0,0-.557,0c-.2.206-.405.407-.587.628-.471.572-.911,1.17-1.4,1.727a3.1,3.1,0,0,1-3.268,1.019c-.926-.221-1.846-.475-2.773-.695-.435-.1-.551-.028-.592.417-.072.76-.122,1.525-.141,2.289a3.485,3.485,0,0,1-2.45,3.564c-.652.228-1.3.473-1.944.722-.851.33-.9.457-.416,1.229.437.7.908,1.374,1.336,2.08a3.211,3.211,0,0,1,0,3.555c-.4.664-.842,1.3-1.262,1.956-.575.89-.545.983.454,1.379.775.307,1.562.589,2.325.923a2.984,2.984,0,0,1,1.885,2.586c.081.842.106,1.691.141,2.537.039.951.149,1.054,1.059.834.8-.193,1.588-.418,2.388-.609a3.8,3.8,0,0,1,.891-.112A3.065,3.065,0,0,1,1588.263-1881.326Zm3.393-7.75a3.743,3.743,0,0,1,3.721-3.75,3.735,3.735,0,0,1,3.732,3.734,3.7,3.7,0,0,1-3.7,3.72h-.008A3.72,3.72,0,0,1,1591.656-1889.076Zm2.307,0a1.437,1.437,0,0,0,1.382,1.413,1.455,1.455,0,0,0,1.47-1.409,1.427,1.427,0,0,0-1.408-1.422h-.02A1.416,1.416,0,0,0,1593.963-1889.076Zm-9.517,1.66a1.168,1.168,0,0,1,.052-1.745q5.169-5.395,10.332-10.794a1.175,1.175,0,0,1,1.967.215,3.132,3.132,0,0,1,.128.48l.067.058a4.1,4.1,0,0,1-.49.83q-4.548,4.794-9.126,9.567c-.4.423-.8.851-1.211,1.27a1.333,1.333,0,0,1-.946.442A1.112,1.112,0,0,1,1584.446-1887.416Zm.989-7.427a3.735,3.735,0,0,1-3.677-3.753,3.728,3.728,0,0,1,3.762-3.7,3.713,3.713,0,0,1,3.691,3.731,3.728,3.728,0,0,1-3.755,3.723Zm-1.384-3.778a1.463,1.463,0,0,0,1.4,1.478,1.45,1.45,0,0,0,1.444-1.4,1.45,1.45,0,0,0-1.421-1.457h0A1.457,1.457,0,0,0,1584.05-1898.621Z" transform="translate(-1573.457 1911.553)" fill="#e12f4f" stroke="rgba(0,0,0,0)" stroke-miterlimit="10" stroke-width="1"/>
</svg>
