<svg xmlns="http://www.w3.org/2000/svg" width="20" height="13.021" viewBox="0 0 20 13.021">
  <path id="horse-01" d="M72.168,148.348a10.175,10.175,0,0,0-.985-1.393,3.71,3.71,0,0,0-.834-.612c-.291-.192-.618-.35-.9-.554-.391-.28-.973-.175-1.049.274a.844.844,0,0,1-.554.647c-.332.169-.664.344-1.008.5a1.227,1.227,0,0,1-1.62-.653c.95-.041,1.4-.344,1.486-1a1.162,1.162,0,0,0-.775-1.282c-.664-.216-1.113.058-1.615,1.008-.14-.029-.286-.064-.437-.093a2.166,2.166,0,0,0-.95.064c-1.749.554-2.332,1.276-2.18,2.693-.2-.012-.391-.029-.583-.035-.583-.017-1.172-.047-1.754-.035a2.5,2.5,0,0,0-1.778.793c-.589.589-1.212,1.148-1.83,1.708a1.521,1.521,0,0,1-1.883.262c-.21-.111-.443-.134-.513.128a.505.505,0,0,0,.216.449,2.042,2.042,0,0,0,2.285-.076c.268-.187.519-.408.775-.612a4.42,4.42,0,0,1-.764,1.119,1.551,1.551,0,0,1-2.034.326.11.11,0,0,0-.047-.012.376.376,0,0,0-.332.513c.006.012.017.017.029.029a2.415,2.415,0,0,0,.868.361,2.281,2.281,0,0,0,2.11-.863c.239-.268.449-.554.595-.74a12.428,12.428,0,0,0,1.3,1.043c.7.426.781.647.321,1.341-.047.07-.1.134-.152.2-.315.391-.291.513.157.764.682.379,1.358.764,2.046,1.131.338.181.612.344.647.8a.779.779,0,0,0,.781.682c.431-.012.606-.291.676-.664s.134-.769.21-1.177a1.569,1.569,0,0,0,1.1.968c.525.134,1.055.256,1.58.385a1.325,1.325,0,0,0,1.4-.519,1.282,1.282,0,0,0,.192-1.446c-.1-.233-.216-.466-.35-.746a7.915,7.915,0,0,1,.8.111c.087.023.216.152.216.227-.029.589-.058,1.183-.14,1.772-.047.338-.006.659.28.8a1.056,1.056,0,0,0,.8.07,1.282,1.282,0,0,0,.769-1.026c.082-.705.163-1.411.2-2.122a1.4,1.4,0,0,0-1.16-1.51c-.262-.064-.525-.122-.927-.21.513-.874.962-1.679,1.451-2.466.181-.291.431-.5.834-.262.181.1.449.041.647.122.338.134.653.315.973.478.117.058.245.181.344.163C72.232,150,72.721,149.274,72.168,148.348Zm-6.61-3.456c.3.047.49.2.472.519a.49.49,0,0,1-.979-.023A.487.487,0,0,1,65.558,144.891Zm-4.127,2.314a1.811,1.811,0,0,1,.711-.909,5.614,5.614,0,0,1,1.626-.42c.344-.052.583.122.635.542.07.554.291.787,1.148,1.416l-.53.093a2.509,2.509,0,0,0-2.139-1.02h-.169s-.408.309-.087.577a.175.175,0,0,0,.064.035c.286.093.6.1.9.175a1.718,1.718,0,0,1,.53.227c.344.216.326.35.07.5a5.051,5.051,0,0,0-.74-.2c-.507-.058-1.032-.035-1.527-.128A.574.574,0,0,1,61.431,147.205Zm-.047,1.515c.5.076.991.152,1.475.221a7.77,7.77,0,0,0-.426,1.008.409.409,0,0,0,.583.408c.012-.012.029-.017.041-.029.554-.46,1.084-.95,1.62-1.434.035.023.07.052.1.076a5.155,5.155,0,0,1-1.387,2.075.551.551,0,0,1-.49.087,11.273,11.273,0,0,1-1.469-.758.682.682,0,0,1-.233-.525A8.957,8.957,0,0,1,61.384,148.721Zm-.122,7.525c-.017.035-.1.175-.227.029a.158.158,0,0,1,0-.052c.07-.443-.175-.641-.53-.828-.764-.4-1.5-.828-2.244-1.242a9.372,9.372,0,0,0,.367-.868,1.022,1.022,0,0,0-.484-1.294c-.2-.128-.408-.239-.612-.356a1.482,1.482,0,0,1-.822-1.591,1.554,1.554,0,0,1,1.323-1.422c.863-.082,1.737-.018,2.722-.018-.466,1.329-.291,2.372,1.183,2.856-.216.28-.373.484-.554.711-.169-.1-.3-.2-.449-.274a.622.622,0,0,0-.938.361c-.1.274-.216.542-.338.8a.818.818,0,0,0,.2,1.055c.332.3.682.571,1.026.857A.971.971,0,0,1,61.262,156.246Zm.565-1.346c-.466-.385-.9-.769-1.358-1.125a.382.382,0,0,1-.111-.595,4.722,4.722,0,0,0,.286-.629c.519.251,1.02.507,1.533.752a.883.883,0,0,0,.356.117c.8-.006.985.67,1.346,1.154l-.07.1a2.3,2.3,0,0,1-.443-.286c-.268-.256-.53-.5-.95-.367C61.979,154.153,61.862,154.491,61.827,154.9Zm5.374-1.976c.163.064.356.064.525.122a.7.7,0,0,1,.548.74c-.047.705-.1,1.416-.21,2.11a.547.547,0,0,1-.082.192c-.3.286-.332.07-.332.064.017-.682.041-1.306.052-1.923.006-.542-.07-.624-.589-.711l-.734-.122C66.508,152.929,66.747,152.743,67.2,152.923Zm4.337-3.591a.5.5,0,0,1-.443.023,2.444,2.444,0,0,0-1.469-.5.965.965,0,0,1-.548-.169.572.572,0,0,0-.781.082,5.65,5.65,0,0,0-1.5,2.128c-.21.455-.367.938-.606,1.37a5.727,5.727,0,0,1-.734.979.7.7,0,0,0-.181.828c.152.315.309.624.46.933a.667.667,0,0,1-.064.781.733.733,0,0,1-.8.3c-.513-.134-1.026-.245-1.539-.385a1.075,1.075,0,0,1-.746-1.043c.058.023.122.029.146.058.455.641,1.207.618,1.859.81a.415.415,0,0,0,.361-.111.469.469,0,0,0,.006-.414c-.391-.624-.793-1.247-1.23-1.836a1.192,1.192,0,0,0-.571-.3c-.367-.122-.74-.21-1.183-.332a2.517,2.517,0,0,0,.256-.344c.163-.338.373-.426.781-.385a1.339,1.339,0,0,0,.944-.4,6.01,6.01,0,0,0,1.62-2.681c.064-.233.542-.408.857-.507.2-.064.408-.047.554-.187h0l.583-.449c.408-.233.822-.46,1.218-.711a.672.672,0,0,0,.157-.157h0a1.163,1.163,0,0,0,.07-.111.3.3,0,0,1,.332-.006,8.348,8.348,0,0,1,.781.356,3.735,3.735,0,0,1,1.574,1.982A.439.439,0,0,1,71.538,149.333Z" transform="translate(-52.396 -144.21)" fill="#e12f4f"/>
</svg>
