<svg xmlns="http://www.w3.org/2000/svg" width="33.998" height="34.004" viewBox="0 0 33.998 34.004">
  <g id="Icon_sports" data-name="Icon sports" transform="translate(74.997 237.468)">
    <g id="_7PCLgn.tif" data-name="7PCLgn.tif" transform="translate(-74.5 -236.968)">
      <g id="Grupo_303" data-name="Grupo 303" transform="translate(0 0)">
        <path id="Unión_1" data-name="Unión 1" d="M24.17,33c-.468-.1-.951-.161-1.407-.3a8.111,8.111,0,0,1-5.791-6.375c-.1.039-.213.08-.325.13a20.162,20.162,0,0,1-8.223,1.7A11.755,11.755,0,0,1,3.39,27.131,5.17,5.17,0,0,1,.72,24.056a14.039,14.039,0,0,1-.676-5.774,20,20,0,0,1,1.441-6.271,18.421,18.421,0,0,1,11.4-10.851A19.625,19.625,0,0,1,20.277.016a12.225,12.225,0,0,1,4.137.845,5.458,5.458,0,0,1,3.223,3.85,14.542,14.542,0,0,1,.492,4.778,20.691,20.691,0,0,1-1.768,7.366c-.017.039-.024.082-.043.143a8.1,8.1,0,0,1,6.622,6.962,1.53,1.53,0,0,0,.059.214v1.548a2.212,2.212,0,0,0-.063.243,8.039,8.039,0,0,1-5.759,6.719c-.459.13-.93.215-1.4.321Zm-5.349-8.066a6.123,6.123,0,1,0,6.14-6.115h-.02A6.153,6.153,0,0,0,18.822,24.938ZM1.959,20.093a9.992,9.992,0,0,0,.755,3.683A2.941,2.941,0,0,0,4,25.252a9.254,9.254,0,0,0,4.077.939,5.429,5.429,0,0,0-5.266-6.177A4.635,4.635,0,0,0,1.959,20.093Zm5.961.136a7.346,7.346,0,0,1,2.153,5.881.868.868,0,0,0,.145.009c.382-.045.769-.078,1.149-.137a18.1,18.1,0,0,0,5.362-1.717.514.514,0,0,0,.216-.312c.1-.4.128-.808.249-1.194a7.942,7.942,0,0,1,6.546-5.774.768.768,0,0,0,.652-.488,18.889,18.889,0,0,0,1.443-4.317c.137-.687.217-1.387.329-2.11a7.378,7.378,0,0,1-5.945-2.157,7.4,7.4,0,0,1-2.152-5.881A17.143,17.143,0,0,0,2.04,18.068c.173-.009.344-.014.514-.014A7.3,7.3,0,0,1,7.92,20.229ZM26.183,8.062a10.463,10.463,0,0,0-.627-3.421,3.31,3.31,0,0,0-2.012-2.029,10.871,10.871,0,0,0-3.472-.654A5.4,5.4,0,0,0,26.183,8.062ZM24.892,30.1c-.4,0-.639-.3-.648-.794,0-.059,0-.117,0-.121-.538-.245-1.045-.459-1.535-.707a.578.578,0,0,1-.3-.657.569.569,0,0,1,.507-.51,1.218,1.218,0,0,1,.542.122c.243.095.473.225.781.375,0-.951,0-1.786-.005-2.623a.314.314,0,0,0-.143-.212c-.149-.1-.318-.176-.476-.267a1.879,1.879,0,0,1-.99-2,2.068,2.068,0,0,1,1.318-1.764.39.39,0,0,0,.3-.434.643.643,0,0,1,.622-.715.626.626,0,0,1,.667.695c.006.214.093.271.277.349a4.043,4.043,0,0,1,.939.529.6.6,0,0,1,.065.913.641.641,0,0,1-.921.045c-.093-.068-.189-.132-.351-.245,0,.564.028,1.065-.009,1.561a.6.6,0,0,0,.47.716A2.245,2.245,0,0,1,27.5,26.49a2.614,2.614,0,0,1-1.645,2.4c-.219.086-.317.178-.31.431.011.5-.236.778-.638.778Zm.676-2.5a1.3,1.3,0,0,0,.607-1.244.9.9,0,0,0-.607-.776Zm-1.355-4.107V22.3C23.788,22.779,23.8,23.286,24.213,23.494ZM9.283,18.858a.985.985,0,0,1,.073-1.433c.195-.2.4-.382.638-.607-.241-.232-.453-.425-.654-.632a.993.993,0,0,1-.048-1.437.982.982,0,0,1,1.433.075c.2.195.39.4.563.573L12.68,14c-.165-.148-.386-.33-.587-.531a.975.975,0,1,1,1.368-1.376c.2.195.379.408.55.594.473-.475.911-.911,1.379-1.379-.167-.167-.366-.371-.564-.574A.985.985,0,0,1,14.743,9.3a1,1,0,0,1,1.46.063c.2.2.386.4.607.63.239-.249.442-.468.655-.676a.98.98,0,0,1,1.389-.033.967.967,0,0,1,0,1.387c-.2.219-.429.42-.746.726.241.193.472.351.67.542a.977.977,0,1,1-1.368,1.378c-.189-.189-.362-.393-.522-.568l-1.4,1.414c.176.161.405.354.614.57A.971.971,0,1,1,14.73,16.1c-.215-.208-.412-.436-.6-.64-.472.473-.91.913-1.432,1.435.2.163.429.332.633.533A.974.974,0,1,1,11.958,18.8c-.2-.195-.383-.4-.626-.663-.228.249-.414.466-.619.667a1.1,1.1,0,0,1-.764.342A.931.931,0,0,1,9.283,18.858Z" fill="#e02c4e" stroke="rgba(0,0,0,0)" stroke-miterlimit="10" stroke-width="1"/>
      </g>
    </g>
  </g>
</svg>
