<svg xmlns="http://www.w3.org/2000/svg" width="23.993" height="23.011" viewBox="0 0 23.993 23.011">
  <g id="So2gD1.tif" transform="translate(5719.92 2805.396)">
    <g id="Grupo_222" data-name="Grupo 222" transform="translate(-5719.92 -2805.396)">
      <path id="Trazado_89" data-name="Trazado 89" d="M-5719.92-2796.064v-.516a.325.325,0,0,0,.047-.074,1.226,1.226,0,0,1,1.095-.918c1.125-.116,2.252-.213,3.379-.315,1.1-.1,2.207-.2,3.31-.293a.387.387,0,0,0,.366-.281q1.28-3.023,2.581-6.036a1.663,1.663,0,0,1,.422-.6,1.267,1.267,0,0,1,2,.552c.853,1.99,1.708,3.98,2.542,5.978a.568.568,0,0,0,.579.4c.607.029,1.213.1,1.818.151,1.321.119,2.642.236,3.962.364a4.379,4.379,0,0,1,1.1.176,1.267,1.267,0,0,1,.3,2.182q-2.52,2.208-5.04,4.412a.259.259,0,0,0-.1.3c.141.583.27,1.168.4,1.753.37,1.64.749,3.279,1.106,4.922a1.255,1.255,0,0,1-.909,1.462c-.058.017-.114.039-.171.059h-.328c-.272-.128-.557-.234-.814-.387q-2.732-1.622-5.454-3.264a.328.328,0,0,0-.4,0q-2.421,1.459-4.853,2.9c-.459.271-.943.5-1.416.748h-.329a.222.222,0,0,0-.058-.036,1.281,1.281,0,0,1-1-1.625q.732-3.222,1.471-6.442a.394.394,0,0,0-.144-.454c-1.6-1.392-3.194-2.8-4.8-4.19A1.991,1.991,0,0,1-5719.92-2796.064Z" transform="translate(5719.92 2805.396)" fill="#e02c4e"/>
    </g>
  </g>
</svg>
